<?xml version="1.0" encoding="UTF-8"?>
<svg version="1.1" xmlns="http://www.w3.org/2000/svg" width="128" height="128">
<path d="M0 0 C2.37692141 1.63136532 4.62011401 3.26221731 6.796875 5.15234375 C8.65007594 6.61690632 8.65007594 6.61690632 10.6875 6.02734375 C11.368125 5.79144531 12.04875 5.55554687 12.75 5.3125 C15.41872879 4.87587993 17.03404212 4.9144423 19.33642578 6.39550781 C21.09269116 7.83034835 22.70597312 9.33692852 24.3125 10.9375 C24.84939453 11.4627124 25.38628906 11.9879248 25.93945312 12.52905273 C28.4565882 15.21025985 29.69314262 16.97794595 30.21875 20.6484375 C29.62986956 24.07375871 28.15242858 24.97257142 25.75 27.375 C26.17692882 30.85157829 27.25906316 34.10508545 28.28515625 37.4453125 C29.93132468 43.43411538 30.2497441 49.06243848 30.1875 55.25 C30.18065186 56.3013916 30.17380371 57.3527832 30.16674805 58.43603516 C30.00207948 66.41290106 29.02122293 73.02815505 25.75 80.375 C25.38777344 81.24769531 25.02554688 82.12039062 24.65234375 83.01953125 C16.96036706 99.99402897 2.70251411 110.67581733 -14.109375 117.54296875 C-30.40000275 122.55728047 -49.7622321 120.47318754 -64.75 112.875 C-81.16873216 103.97272371 -91.85885123 89.58075147 -97.36328125 71.7734375 C-100.46559644 58.68212927 -99.72677869 42.67530624 -94.25 30.375 C-93.88777344 29.50230469 -93.52554688 28.62960938 -93.15234375 27.73046875 C-86.2299626 12.45429883 -73.60962165 1.40563924 -58.24609375 -4.84765625 C-39.13741682 -11.94661879 -17.49419233 -10.82754874 0 0 Z " fill="#3DB39E" transform="translate(98.25,8.625)"/>
<path d="M0 0 C4.47825625 0.83899205 6.50415764 3.00781464 9.5859375 6.2265625 C10.40384766 7.00966797 10.40384766 7.00966797 11.23828125 7.80859375 C11.75261719 8.33066406 12.26695313 8.85273438 12.796875 9.390625 C13.2614209 9.86193848 13.7259668 10.33325195 14.20458984 10.81884766 C15.82157729 13.68329266 15.77511646 15.36223499 15.2109375 18.6015625 C13.36221077 21.06784038 11.05713177 22.95658671 8.71875 24.94921875 C7.23663858 26.27370981 5.75941697 27.60368524 4.28613281 28.93798828 C3.47341919 29.67382141 2.66070557 30.40965454 1.82336426 31.16778564 C-2.55031404 35.24237146 -6.71884556 39.51650127 -10.89694977 43.78944016 C-12.42686885 45.35275912 -13.96105252 46.91176402 -15.49676514 48.46939087 C-19.71878896 52.75216477 -23.93987085 57.0355932 -28.13476562 61.3449707 C-30.74028562 64.02067533 -33.36017381 66.68153504 -35.99026108 69.33308601 C-36.9788797 70.33524008 -37.96207975 71.34277133 -38.93951797 72.35583305 C-40.29476479 73.75929394 -41.67065223 75.14273443 -43.04736328 76.52514648 C-43.82073029 77.31485336 -44.59409729 78.10456024 -45.39089966 78.91819763 C-48.46180698 81.07378832 -50.10866448 81.16413471 -53.7890625 80.6015625 C-55.84605408 79.30647278 -55.84605408 79.30647278 -57.69897461 77.46801758 C-58.40247543 76.78342972 -59.10597626 76.09884186 -59.83079529 75.39350891 C-60.56854691 74.64361191 -61.30629852 73.8937149 -62.06640625 73.12109375 C-62.83714981 72.35609055 -63.60789337 71.59108734 -64.4019928 70.80290222 C-66.02546442 69.18351011 -67.64139719 67.55652982 -69.25024414 65.92260742 C-71.72113229 63.41956338 -74.22241842 60.95015668 -76.72851562 58.48242188 C-78.301407 56.90556647 -79.87243655 55.32685127 -81.44140625 53.74609375 C-82.19332748 53.0063179 -82.94524872 52.26654205 -83.71995544 51.50434875 C-84.40139114 50.80400009 -85.08282684 50.10365143 -85.78491211 49.38208008 C-86.39080673 48.7714119 -86.99670135 48.16074371 -87.62095642 47.53157043 C-88.7890625 45.6015625 -88.7890625 45.6015625 -88.62232971 43.04838562 C-87.4235958 39.52839851 -85.12879864 37.28249007 -82.5390625 34.7265625 C-82.06082031 34.21609375 -81.58257812 33.705625 -81.08984375 33.1796875 C-79.6484375 31.734375 -79.6484375 31.734375 -76.7890625 29.6015625 C-72.15150485 29.77176997 -70.07524813 31.84347531 -66.92578125 35.07421875 C-66.03955078 35.97333984 -65.15332031 36.87246094 -64.24023438 37.79882812 C-63.32822266 38.74435547 -62.41621094 39.68988281 -61.4765625 40.6640625 C-60.53673974 41.62396071 -59.59599361 42.58295579 -58.65429688 43.54101562 C-56.35664226 45.88580162 -54.0688349 48.23940777 -51.7890625 50.6015625 C-47.64231156 47.11058378 -43.61870085 43.56879835 -39.7890625 39.7265625 C-39.0053125 38.94539063 -38.2215625 38.16421875 -37.4140625 37.359375 C-35.42793936 35.27276349 -33.54952885 33.17051348 -31.6796875 30.984375 C-26.9167022 25.49765331 -21.70864037 20.44985925 -16.5390625 15.3515625 C-14.57257437 13.41180333 -12.6095326 11.46864713 -10.6484375 9.5234375 C-9.35631348 8.24871582 -9.35631348 8.24871582 -8.03808594 6.94824219 C-5.78272038 4.7054279 -5.78272038 4.7054279 -4.15966797 2.33154297 C-2.7890625 0.6015625 -2.7890625 0.6015625 0 0 Z " fill="#F0F0EE" transform="translate(112.7890625,13.3984375)"/>
<path d="M0 0 C0.88048004 0.33994995 0.88048004 0.33994995 1.77874756 0.68676758 C2.18450928 3.29003906 2.18450928 3.29003906 1.77874756 6.68676758 C-0.04860663 9.16584498 -2.37746412 11.043842 -4.71343994 13.03442383 C-6.19555137 14.35891489 -7.67277297 15.68889032 -9.14605713 17.02319336 C-9.95877075 17.75902649 -10.77148438 18.49485962 -11.60882568 19.25299072 C-15.98250399 23.32757654 -20.1510355 27.60170634 -24.32913971 31.87464523 C-25.85905879 33.4379642 -27.39324246 34.9969691 -28.92895508 36.55459595 C-33.15097891 40.83736985 -37.37206079 45.12079828 -41.56695557 49.43017578 C-44.17247556 52.10588041 -46.79236375 54.76674012 -49.42245102 57.41829109 C-50.41106964 58.42044516 -51.39426969 59.4279764 -52.37170792 60.44103813 C-53.72695473 61.84449902 -55.10284218 63.22793951 -56.47955322 64.61035156 C-57.25292023 65.40005844 -58.02628723 66.18976532 -58.8230896 67.00340271 C-61.89399692 69.1589934 -63.54085442 69.24933979 -67.22125244 68.68676758 C-69.27824402 67.39167786 -69.27824402 67.39167786 -71.13116455 65.55322266 C-71.83466537 64.8686348 -72.5381662 64.18404694 -73.26298523 63.47871399 C-74.00073685 62.72881699 -74.73848846 61.97891998 -75.49859619 61.20629883 C-76.26933975 60.44129562 -77.04008331 59.67629242 -77.83418274 58.8881073 C-79.45765437 57.26871519 -81.07358713 55.6417349 -82.68243408 54.0078125 C-85.15332223 51.50476846 -87.65460836 49.03536176 -90.16070557 46.56762695 C-91.73359694 44.99077155 -93.3046265 43.41205635 -94.87359619 41.83129883 C-95.62551743 41.09152298 -96.37743866 40.35174713 -97.15214539 39.58955383 C-97.83358109 38.88920517 -98.51501678 38.18885651 -99.21710205 37.46728516 C-99.82299667 36.85661697 -100.4288913 36.24594879 -101.05314636 35.61677551 C-102.22125244 33.68676758 -102.22125244 33.68676758 -102.05671692 31.1335907 C-100.85059265 27.60121699 -98.51906937 25.36467779 -95.90875244 22.81176758 C-95.42213135 22.30129883 -94.93551025 21.79083008 -94.43414307 21.26489258 C-92.98297119 19.81958008 -92.98297119 19.81958008 -90.22125244 17.68676758 C-87.86578369 17.86645508 -87.86578369 17.86645508 -86.22125244 18.68676758 C-86.92250244 19.05801758 -87.62375244 19.42926758 -88.34625244 19.81176758 C-91.83151756 22.08476657 -94.34902142 24.68094442 -97.22125244 27.68676758 C-96.89125244 28.67676758 -96.56125244 29.66676758 -96.22125244 30.68676758 C-95.56125244 31.01676758 -94.90125244 31.34676758 -94.22125244 31.68676758 C-94.22125244 32.34676758 -94.22125244 33.00676758 -94.22125244 33.68676758 C-93.68210205 33.89994629 -93.14295166 34.113125 -92.58746338 34.33276367 C-89.35622786 36.18175585 -86.94726552 38.71472387 -84.36187744 41.35083008 C-83.81263611 41.90290131 -83.26339478 42.45497253 -82.69750977 43.02377319 C-80.95065951 44.78178573 -79.21090643 46.54663648 -77.47125244 48.31176758 C-76.28551653 49.50753838 -75.09932364 50.70285623 -73.91265869 51.89770508 C-71.01020159 54.82217011 -68.11408834 57.75278631 -65.22125244 60.68676758 C-59.91188743 56.26742896 -55.02481665 51.57045698 -50.20367432 46.63012695 C-47.40677088 43.79234308 -44.56175519 41.08819744 -41.52862549 38.50292969 C-37.10213213 34.64825525 -33.01246846 30.51959638 -28.92437744 26.31176758 C-27.37418793 24.73436292 -25.82338931 23.15755666 -24.27203369 21.58129883 C-21.85434584 19.12011138 -19.44076668 16.65537672 -17.03717041 14.18041992 C-14.69833851 11.77534557 -12.34420446 9.38619768 -9.98687744 6.99926758 C-9.26703674 6.2504834 -8.54719604 5.50169922 -7.80554199 4.73022461 C-7.13093933 4.0520166 -6.45633667 3.37380859 -5.7612915 2.67504883 C-5.17253235 2.07217041 -4.58377319 1.46929199 -3.97717285 0.84814453 C-2.22125244 -0.31323242 -2.22125244 -0.31323242 0 0 Z " fill="#E5E5E3" transform="translate(126.22125244140625,25.313232421875)"/>
<path d="M0 0 C1.458692 2.31674612 2.02409497 3.63074452 1.84375 6.39453125 C0.74263135 9.79474486 -0.73153065 10.83985647 -3.5625 13 C-4.5525 13.77214844 -5.5425 14.54429688 -6.5625 15.33984375 C-7.11035156 15.76120605 -7.65820312 16.18256836 -8.22265625 16.61669922 C-11.54998073 19.20634489 -14.79819139 21.89421574 -18.0625 24.5625 C-23.22370996 28.75944841 -28.40400638 32.93113286 -33.60546875 37.078125 C-38.09841592 40.68420984 -42.54798269 44.34359035 -47 48 C-47.66 47.67 -48.32 47.34 -49 47 C-42.9123708 40.86610536 -36.81941096 34.73757132 -30.71950722 28.61588287 C-27.8874886 25.77341065 -25.057367 22.92910117 -22.23144531 20.08056641 C-19.50608701 17.33353584 -16.77592416 14.59136742 -14.04230881 11.85255432 C-12.99832609 10.80486572 -11.9561102 9.75541357 -10.91566849 8.70420837 C-9.46220021 7.2362998 -8.00267235 5.77469126 -6.54150391 4.31445312 C-5.71099518 3.47950317 -4.88048645 2.64455322 -4.02481079 1.78430176 C-2 0 -2 0 0 0 Z " fill="#37A28E" transform="translate(123,37)"/>
<path d="M0 0 C0.66 0.33 1.32 0.66 2 1 C1.53281555 1.46496384 1.0656311 1.92992767 0.58428955 2.40898132 C-4.2853898 7.25650693 -9.15152162 12.10757287 -14.015625 16.96069336 C-15.83047535 18.77052046 -17.64622293 20.57944829 -19.46289062 22.38745117 C-22.07659521 24.98900232 -24.68703745 27.59378897 -27.296875 30.19921875 C-28.10743347 31.00461594 -28.91799194 31.81001312 -29.75311279 32.63981628 C-33.40236827 36.28870932 -36.82874011 39.91988023 -40 44 C-41.63356951 45.37368345 -43.2925002 46.71937515 -45 48 C-45.66 47.67 -46.32 47.34 -47 47 C-31.49 31.49 -15.98 15.98 0 0 Z " fill="#44A795" transform="translate(121,37)"/>
</svg>
