<?xml version="1.0" encoding="UTF-8"?>
<svg version="1.1" xmlns="http://www.w3.org/2000/svg" width="128" height="128">
<path d="M0 0 C1.15957207 3.47871621 0.77456651 4.34219645 -0.4375 7.6875 C-0.86869141 8.89986328 -0.86869141 8.89986328 -1.30859375 10.13671875 C-1.65083984 11.05904297 -1.65083984 11.05904297 -2 12 C-2.89460938 11.7834375 -3.78921875 11.566875 -4.7109375 11.34375 C-18.16785506 8.2449289 -29.07845969 7.66662413 -41.65234375 14.42578125 C-53.7253469 22.1999114 -58.43634025 31.30902076 -63 45 C-46.17 45 -29.34 45 -12 45 C-12 48.63 -12 52.26 -12 56 C-32.79 56 -53.58 56 -75 56 C-75 39.19742599 -71.54113895 24.64193312 -60 12 C-45.14216053 -1.1326912 -19.21764316 -10.12990735 0 0 Z " fill="#000000" transform="translate(85,67)"/>
<path d="M0 0 C6.47876645 4.6089754 11.44228933 9.97851797 13 18 C13.71702306 27.65223349 12.94416829 34.67780326 6.75 42.25 C1.85651406 47.51592885 -3.48278608 50.66443554 -10.734375 51.203125 C-20.74768125 51.35877225 -26.8344695 49.78250673 -34.23828125 42.90234375 C-40.23871857 36.42293582 -41.37780443 29.7364938 -41.2734375 21.16796875 C-40.62561806 13.6625178 -37.64657388 7.51220966 -32.03515625 2.47265625 C-22.91890853 -4.12393759 -9.95384674 -5.86862214 0 0 Z M-27.375 15.625 C-29.57907893 20.20270239 -29.7971639 24.00552411 -29 29 C-26.67031069 33.83858548 -23.83858548 36.67031069 -19 39 C-14.00552411 39.7971639 -10.20270239 39.57907893 -5.625 37.375 C-2.04092287 34.13226355 0.59535241 31.53524104 1.3828125 26.6015625 C1.63883919 20.91777006 0.93626932 17.35061345 -3 13 C-7.35061345 9.06373068 -10.91777006 8.36116081 -16.6015625 8.6171875 C-21.53524104 9.40464759 -24.13226355 12.04092287 -27.375 15.625 Z " fill="#000000" transform="translate(78,8)"/>
<path d="M0 0 C1.19367188 -0.01675781 2.38734375 -0.03351563 3.6171875 -0.05078125 C9.96570516 0.6066933 14.06990363 3.5104122 18.125 8.3125 C22.30891007 14.29535512 23.14255507 20.12667296 22.125 27.3125 C20.3277216 33.49130916 16.46704831 37.82517532 11.125 41.3125 C5.04602453 44.19357795 -1.21647405 44.47163693 -7.63671875 42.4375 C-13.51070569 39.76830414 -16.67263242 36.89081771 -19.875 31.3125 C-21.87454039 25.31387882 -22.12968158 17.7225267 -19.93359375 11.75390625 C-15.19927607 3.9029531 -9.11061515 0.02938908 0 0 Z M-5 13 C-8.30376528 15.61497827 -8.30376528 15.61497827 -9.875 19.3125 C-9.545 20.6325 -9.215 21.9525 -8.875 23.3125 C-5.245 19.6825 -1.615 16.0525 2.125 12.3125 C-1.8445893 10.84242353 -1.8445893 10.84242353 -5 13 Z M7.05859375 23.28125 C6.23488281 24.1165625 5.41117188 24.951875 4.5625 25.8125 C3.73621094 26.6478125 2.90992188 27.483125 2.05859375 28.34375 C1.10146484 29.31828125 1.10146484 29.31828125 0.125 30.3125 C1.99062478 30.96552724 1.99062478 30.96552724 4.125 31.3125 C6.94001244 29.84441499 6.94001244 29.84441499 9.125 27.3125 C10.01093998 24.17386296 10.01093998 24.17386296 10.125 21.3125 C8.76998098 21.19753469 8.76998098 21.19753469 7.05859375 23.28125 Z " fill="#000000" transform="translate(100.875,79.6875)"/>
</svg>
