<?xml version="1.0" encoding="UTF-8"?>
<svg version="1.1" xmlns="http://www.w3.org/2000/svg" width="128" height="128">
<path d="M0 0 C12.27933337 10.68969052 21.61732962 23.85469087 22.95751953 40.54296875 C23.87258633 58.15513316 20.25037821 73.16302514 8.4140625 86.8203125 C-3.26218524 99.01023612 -16.79986528 106.29030585 -33.86254883 106.79931641 C-51.07816748 106.95323503 -65.37796036 101.84813177 -77.99609375 89.76171875 C-90.26643753 76.9287137 -95.74045461 62.79188838 -95.56225586 45.09326172 C-95.03086145 27.55909772 -87.56308227 14.37152124 -75.2109375 2.4453125 C-55.3336877 -15.90291808 -20.97546099 -17.32093422 0 0 Z " fill="#F1234B" transform="translate(100.2109375,16.5546875)"/>
<path d="M0 0 C2.2199707 1.65234375 2.2199707 1.65234375 4.42578125 3.9375 C5.61977539 5.15566406 5.61977539 5.15566406 6.83789062 6.3984375 C8.06282227 7.68621094 8.06282227 7.68621094 9.3125 9 C10.56643555 10.28777344 10.56643555 10.28777344 11.84570312 11.6015625 C13.90879656 13.72360146 15.95934566 15.85641027 18 18 C21.25533554 16.58385486 23.29698093 14.88815736 25.71484375 12.3046875 C26.74448242 11.23154297 26.74448242 11.23154297 27.79492188 10.13671875 C29.22537143 8.62672733 30.64985539 7.1110625 32.06835938 5.58984375 C33.09993164 4.52056641 33.09993164 4.52056641 34.15234375 3.4296875 C35.0803479 2.44331299 35.0803479 2.44331299 36.02709961 1.43701172 C38.53038595 -0.38631997 39.96721318 -0.3688398 43 0 C44.8125 1.1875 44.8125 1.1875 46 3 C46.44483121 6.24503009 46.32837201 7.5588229 44.34765625 10.2199707 C43.59355469 10.94788818 42.83945313 11.67580566 42.0625 12.42578125 C41.25039062 13.22177734 40.43828125 14.01777344 39.6015625 14.83789062 C38.74304688 15.65451172 37.88453125 16.47113281 37 17.3125 C36.14148438 18.14845703 35.28296875 18.98441406 34.3984375 19.84570312 C32.27639854 21.90879656 30.14358973 23.95934566 28 26 C29.38170709 29.14870618 30.9551349 31.13806822 33.4765625 33.4609375 C34.48203125 34.41613281 34.48203125 34.41613281 35.5078125 35.390625 C36.91955472 36.71380774 38.33887502 38.02895121 39.765625 39.3359375 C44.86309694 44.21691449 44.86309694 44.21691449 45.5859375 48.3515625 C45 51 45 51 43 53 C39.50459078 53.43744906 37.68670533 53.47804623 34.75830078 51.43945312 C34.07751465 50.72724609 33.39672852 50.01503906 32.6953125 49.28125 C31.57382813 48.13076172 31.57382813 48.13076172 30.4296875 46.95703125 C29.66914062 46.14621094 28.90859375 45.33539063 28.125 44.5 C27.34125 43.68917969 26.5575 42.87835938 25.75 42.04296875 C23.81913998 40.04146751 21.90364788 38.02734376 20 36 C16.86774185 37.38004796 14.84347078 38.95580313 12.50390625 41.44140625 C11.54194336 42.44010742 11.54194336 42.44010742 10.56054688 43.45898438 C9.2284124 44.8614368 7.90027723 46.26769888 6.57617188 47.67773438 C5.61227539 48.67450195 5.61227539 48.67450195 4.62890625 49.69140625 C4.05213135 50.30185791 3.47535645 50.91230957 2.88110352 51.54125977 C0.57199186 53.33190767 -1.10165157 53.77062168 -4 54 C-6.375 52.375 -6.375 52.375 -8 50 C-7.71163863 45.69835279 -6.22284146 43.74216467 -3.18359375 40.79296875 C-2.41982422 40.04208984 -1.65605469 39.29121094 -0.86914062 38.51757812 C-0.06669922 37.74865234 0.73574219 36.97972656 1.5625 36.1875 C2.36880859 35.39923828 3.17511719 34.61097656 4.00585938 33.79882812 C5.99520169 31.85657084 7.99327271 29.92426339 10 28 C8.58385486 24.74466446 6.88815736 22.70301907 4.3046875 20.28515625 C3.58925781 19.59873047 2.87382813 18.91230469 2.13671875 18.20507812 C0.62672733 16.77462857 -0.8889375 15.35014461 -2.41015625 13.93164062 C-3.12300781 13.24392578 -3.83585937 12.55621094 -4.5703125 11.84765625 C-5.22789551 11.22898682 -5.88547852 10.61031738 -6.56298828 9.97290039 C-8.38631997 7.46961405 -8.3688398 6.03278682 -8 3 C-5.82401522 -0.32123993 -3.80376663 -0.45747015 0 0 Z " fill="#FE718F" transform="translate(45,37)"/>
</svg>
