<?xml version="1.0" encoding="UTF-8"?>
<svg version="1.1" xmlns="http://www.w3.org/2000/svg" width="128" height="128">
<path d="M0 0 C3.26626351 2.3450097 4.1724449 4.17557062 5 8 C5.51949219 7.59007812 6.03898437 7.18015625 6.57421875 6.7578125 C7.27160156 6.21898437 7.96898438 5.68015625 8.6875 5.125 C9.37199219 4.59132813 10.05648437 4.05765625 10.76171875 3.5078125 C17.69349784 -1.16176294 25.93895423 -0.97555354 34 0 C41.37231702 2.04786584 46.84562194 6.63068828 51 13 C55.10257 21.07964963 55.59736396 30.2909029 53.15625 39.015625 C49.88653119 46.21784345 44.42750609 51.61058731 37.25 54.9375 C34 56 34 56 30 56 C30.08168661 59.18848562 30.19445074 62.37516987 30.3125 65.5625 C30.33505859 66.45775391 30.35761719 67.35300781 30.38085938 68.27539062 C30.63787679 74.65409553 31.18109513 80.07781629 35.8125 84.87890625 C39.41178731 86.723541 43.14955004 86.84501357 47.125 87.27734375 C50.56661251 88.14242298 51.86945194 89.19109347 54 92 C54.53125 94 54.53125 94 54.5 96 C54.51546875 96.99 54.51546875 96.99 54.53125 98 C53.71263582 101.08184162 52.57704113 102.09198896 50 104 C46.80558176 104.56257735 43.65661868 104.46498776 40.421875 104.390625 C39.4953009 104.38496521 38.56872681 104.37930542 37.61407471 104.37347412 C34.65885438 104.35110921 31.70485295 104.30091262 28.75 104.25 C26.7448092 104.22993515 24.73959936 104.21168435 22.734375 104.1953125 C17.82244806 104.151244 12.91143058 104.08221555 8 104 C7.88527344 105.09441406 7.77054687 106.18882813 7.65234375 107.31640625 C6.97030864 111.1676584 6.12693703 112.80281194 2.94140625 115.11328125 C-0.9838669 116.90611224 -4.82333725 116.83262483 -9 116 C-11.92384863 114.66456008 -12.84866453 113.59263505 -15 111 C-15.41101992 108.67909109 -15.75426172 106.34417752 -16 104 C-17.87703613 104.0314209 -17.87703613 104.0314209 -19.79199219 104.06347656 C-24.43608145 104.13589394 -29.08012083 104.18180618 -33.72460938 104.21972656 C-35.73446038 104.23983805 -37.74425291 104.26713115 -39.75390625 104.30175781 C-42.64337596 104.35029634 -45.53207191 104.37297322 -48.421875 104.390625 C-49.76895538 104.42159271 -49.76895538 104.42159271 -51.14324951 104.45318604 C-57.38487755 104.45542945 -57.38487755 104.45542945 -60.56542969 102.10058594 C-62.11326565 99.83414948 -62.54246616 98.71783422 -62.5 96 C-62.51546875 95.01 -62.51546875 95.01 -62.53125 94 C-61.7454033 91.04151831 -60.40146616 89.86023422 -58 88 C-55.16015625 87.3125 -55.16015625 87.3125 -52.0625 87 C-47.30398284 86.32766384 -44.20719756 85.84863707 -41 82 C-38.76818456 76.82313916 -38.72012323 72.10900489 -38.7265625 66.578125 C-38.70626672 64.72916069 -38.68541581 62.8802024 -38.6640625 61.03125 C-38.64153513 58.14382828 -38.62501352 55.25664601 -38.61914062 52.36914062 C-38.56876401 37.6490938 -38.05186447 27.32115749 -27.4453125 16.20703125 C-22.74013818 11.96034836 -18.41966243 9 -12 9 C-11.896875 7.88625 -11.79375 6.7725 -11.6875 5.625 C-11.460625 4.42875 -11.23375 3.2325 -11 2 C-7.32396731 -0.45068846 -4.27238966 -0.70632248 0 0 Z " fill="#F8C23D" transform="translate(68,6)"/>
<path d="M0 0 C0.66 0 1.32 0 2 0 C2.66 1.98 3.32 3.96 4 6 C6.64 6.33 9.28 6.66 12 7 C11.113125 7.969375 10.22625 8.93875 9.3125 9.9375 C1.4152968 19.19757751 -1.27805059 28.58771921 -1.30859375 40.57421875 C-1.3337307 42.39388373 -1.35912902 44.21354512 -1.38476562 46.03320312 C-1.41357959 48.87051632 -1.43763333 51.70776763 -1.45629883 54.54516602 C-1.47795231 57.30515227 -1.51735977 60.06446573 -1.55859375 62.82421875 C-1.55870956 63.67014084 -1.55882538 64.51606293 -1.5589447 65.38761902 C-1.63822182 70.11051816 -2.03520745 73.11220599 -5 77 C-5.42410156 77.57878906 -5.84820312 78.15757813 -6.28515625 78.75390625 C-9.59274142 81.15736791 -13.9068005 80.88497343 -17.87109375 81.27734375 C-21.47695471 82.11015808 -22.77408887 83.08754279 -25 86 C-25.58779521 89.52677125 -25.55751526 91.20766582 -23.48480225 94.15338135 C-20.02791357 96.72242084 -16.88672298 96.57260624 -12.74316406 96.54589844 C-11.49870766 96.56140495 -11.49870766 96.56140495 -10.22911072 96.57722473 C-7.49108481 96.60668628 -4.75379705 96.60815259 -2.015625 96.609375 C-0.11560656 96.6243544 1.78439885 96.64108105 3.68438721 96.65948486 C8.68207391 96.70319755 13.67958495 96.72316617 18.6774292 96.73822021 C23.77854821 96.75777716 28.87947714 96.79974875 33.98046875 96.83984375 C43.98692059 96.91518832 53.99332997 96.96545409 64 97 C62.25 101.875 62.25 101.875 60 103 C58.64154807 103.08902493 57.27884026 103.11760132 55.91748047 103.11352539 C54.65639969 103.11341209 54.65639969 103.11341209 53.36984253 103.11329651 C52.00727829 103.10555458 52.00727829 103.10555458 50.6171875 103.09765625 C49.68778351 103.0962413 48.75837952 103.09482635 47.80081177 103.09336853 C44.82550876 103.08776053 41.85028036 103.07520668 38.875 103.0625 C36.86067817 103.05748603 34.84635516 103.05292295 32.83203125 103.04882812 C27.88799198 103.0377885 22.94400865 103.02051849 18 103 C17.88527344 104.09441406 17.77054687 105.18882813 17.65234375 106.31640625 C16.97030864 110.1676584 16.12693703 111.80281194 12.94140625 114.11328125 C9.0161331 115.90611224 5.17666275 115.83262483 1 115 C-1.92384863 113.66456008 -2.84866453 112.59263505 -5 110 C-5.41101992 107.67909109 -5.75426172 105.34417752 -6 103 C-7.87703613 103.0314209 -7.87703613 103.0314209 -9.79199219 103.06347656 C-14.43608145 103.13589394 -19.08012083 103.18180618 -23.72460938 103.21972656 C-25.73446038 103.23983805 -27.74425291 103.26713115 -29.75390625 103.30175781 C-32.64337596 103.35029634 -35.53207191 103.37297322 -38.421875 103.390625 C-39.76895538 103.42159271 -39.76895538 103.42159271 -41.14324951 103.45318604 C-47.38487755 103.45542945 -47.38487755 103.45542945 -50.56542969 101.10058594 C-52.11326565 98.83414948 -52.54246616 97.71783422 -52.5 95 C-52.51546875 94.01 -52.51546875 94.01 -52.53125 93 C-51.7454033 90.04151831 -50.40146616 88.86023422 -48 87 C-45.16015625 86.3125 -45.16015625 86.3125 -42.0625 86 C-37.30398284 85.32766384 -34.20719756 84.84863707 -31 81 C-28.76818456 75.82313916 -28.72012323 71.10900489 -28.7265625 65.578125 C-28.70626672 63.72916069 -28.68541581 61.8802024 -28.6640625 60.03125 C-28.64153513 57.14382828 -28.62501352 54.25664601 -28.61914062 51.36914062 C-28.56876401 36.6490938 -28.05186447 26.32115749 -17.4453125 15.20703125 C-12.74013818 10.96034836 -8.41966243 8 -2 8 C-1.855625 6.865625 -1.71125 5.73125 -1.5625 4.5625 C-1 1 -1 1 0 0 Z " fill="#F7A83D" transform="translate(58,7)"/>
<path d="M0 0 C7.22538503 4.30603754 11.61183794 10.13263188 14.4375 18 C15.58377924 27.37083278 15.35041227 36.25894094 9.4375 44 C4.18590436 49.77895253 -1.15269761 53.55197213 -8.984375 54.34765625 C-19.48636864 54.75887889 -26.58135882 52.80678603 -34.4375 45.8125 C-40.64155697 38.99243738 -42.31434652 31.24125692 -42.015625 22.18359375 C-40.9640358 14.79527309 -36.91506467 8.11467291 -31.5625 3 C-22.7022151 -3.60143756 -10.06021014 -4.51557524 0 0 Z " fill="#F6606C" transform="translate(107.5625,8)"/>
<path d="M0 0 C0.33 0.66 0.66 1.32 1 2 C0.22265625 3.7421875 0.22265625 3.7421875 -0.9375 5.875 C-4.04524324 12.69022641 -4.29378931 19.10446648 -1.9296875 26.22265625 C1.12915097 32.96714436 4.53132548 37.37805061 11 41 C12.0725 41.61875 13.145 42.2375 14.25 42.875 C21.40043272 45.02012981 28.29209126 45.11149632 35.125 41.9375 C35.82882813 41.55464844 36.53265625 41.17179687 37.2578125 40.77734375 C37.83273438 40.52082031 38.40765625 40.26429687 39 40 C39.99 40.495 39.99 40.495 41 41 C32.40258094 49.15079989 26.70520553 51.6820407 14.73046875 51.41015625 C6.91599596 50.55097338 0.72922442 46.77459068 -4.52734375 40.99609375 C-10.04946896 33.51119725 -11.29634604 25.1079485 -10 16 C-7.91021988 9.77348299 -4.41600367 4.79451828 0 0 Z " fill="#EA4053" transform="translate(76,11)"/>
<path d="M0 0 C4.55555556 0.55555556 4.55555556 0.55555556 6 2 C6.25035974 5.30516934 6.18521952 8.62396041 6.1875 11.9375 C6.19974609 12.87013672 6.21199219 13.80277344 6.22460938 14.76367188 C6.22750977 16.10075195 6.22750977 16.10075195 6.23046875 17.46484375 C6.23457764 18.285896 6.23868652 19.10694824 6.24291992 19.95288086 C6 22 6 22 4 24 C-0.55555556 23.44444444 -0.55555556 23.44444444 -2 22 C-2.25035974 18.69483066 -2.18521952 15.37603959 -2.1875 12.0625 C-2.19974609 11.12986328 -2.21199219 10.19722656 -2.22460938 9.23632812 C-2.22654297 8.34494141 -2.22847656 7.45355469 -2.23046875 6.53515625 C-2.23663208 5.30357788 -2.23663208 5.30357788 -2.24291992 4.04711914 C-2 2 -2 2 0 0 Z " fill="#FEFCFC" transform="translate(92,14)"/>
<path d="M0 0 C5.28 0 10.56 0 16 0 C15 7 15 7 13.58984375 8.77734375 C12.05989583 9.8515625 10.52994792 10.92578125 9 12 C5.03003461 9.90474049 2.47940063 7.76501577 0 4 C0 2.68 0 1.36 0 0 Z " fill="#F8C23C" transform="translate(60,110)"/>
<path d="M0 0 C2.625 0.375 2.625 0.375 5 1 C5.625 3.375 5.625 3.375 6 6 C5.34 6.66 4.68 7.32 4 8 C1.375 7.625 1.375 7.625 -1 7 C-1.625 4.625 -1.625 4.625 -2 2 C-1.34 1.34 -0.68 0.68 0 0 Z " fill="#FEF4F5" transform="translate(92,46)"/>
</svg>
