<?xml version="1.0" encoding="UTF-8"?>
<svg version="1.1" xmlns="http://www.w3.org/2000/svg" width="128" height="128">
<path d="M0 0 C12.07845092 8.37495377 18.83717383 19.8246265 22.0546875 34.1796875 C22.1165625 35.2934375 22.1784375 36.4071875 22.2421875 37.5546875 C22.29246094 38.34875 22.34273438 39.1428125 22.39453125 39.9609375 C22.70067954 48.48410577 20.93013592 56.49084224 18.2421875 64.5546875 C18.97856445 65.275354 19.71494141 65.99602051 20.47363281 66.73852539 C23.22471579 69.43497649 25.96558652 72.14161601 28.70361328 74.85131836 C29.88610709 76.01880099 31.0712891 77.18356775 32.25927734 78.34545898 C33.97440988 80.02386954 35.67937657 81.71207292 37.3828125 83.40234375 C37.90901184 83.91305923 38.43521118 84.42377472 38.97735596 84.94996643 C43.12013051 89.09086435 46.717726 93.51115897 47.73828125 99.43359375 C47.60449407 105.56104658 47.37572013 110.41259331 42.8125 114.98828125 C38.71777551 118.58389753 35.4662328 119.74073665 30.1171875 119.9921875 C29.22773437 120.05277344 28.33828125 120.11335937 27.421875 120.17578125 C19.88019632 118.70265237 14.84173236 113.36445022 9.89453125 107.796875 C1.20648099 96.91366787 1.20648099 96.91366787 -10.20068359 89.88427734 C-15.23788661 90.01360645 -19.32415942 92.35796823 -23.7578125 94.5546875 C-36.61363508 96.33749241 -49.84243723 92.14075803 -60.3828125 84.9296875 C-71.216988 76.65103079 -77.61352049 65.75243948 -80.7578125 52.5546875 C-82.42076297 36.55108362 -79.66262193 22.51803727 -69.7578125 9.5546875 C-52.25501693 -11.40500117 -22.48645178 -14.4401815 0 0 Z M-61.1328125 14.8671875 C-68.08301412 23.25585299 -72.37672546 33.30096886 -72.00390625 44.33203125 C-70.98147992 53.56632616 -68.01184075 60.94831953 -62.7578125 68.5546875 C-61.8915625 69.885 -61.8915625 69.885 -61.0078125 71.2421875 C-52.21863443 80.27550941 -41.72327248 84.66080641 -29.1953125 85.0546875 C-16.51633966 84.66615922 -6.21804447 79.48443966 2.4921875 70.3671875 C11.32168855 59.96917229 13.14232979 48.75677435 12.2421875 35.5546875 C10.18629325 24.607378 4.33037599 15.24092742 -4.6328125 8.6171875 C-23.5528697 -3.52075689 -45.42743287 -1.74992765 -61.1328125 14.8671875 Z " fill="#282E6C" transform="translate(80.7578125,8.4453125)"/>
<path d="M0 0 C8.16313542 6.59647307 11.80272575 15.40539136 13.03125 25.66015625 C13.44312844 35.39078445 9.8294997 43.8597486 3.75 51.3125 C-1.69084065 57.17086319 -9.19504416 61.50700442 -17.25 62.3125 C-17.8584375 62.37566406 -18.466875 62.43882813 -19.09375 62.50390625 C-28.4270224 63.02805742 -38.34105515 60.10292955 -45.5390625 54.07421875 C-48.69842592 50.82108427 -51.05977147 47.26992226 -53.25 43.3125 C-53.59160156 42.70921875 -53.93320312 42.1059375 -54.28515625 41.484375 C-58.05985219 33.40828137 -57.39208141 22.83039135 -54.8125 14.5 C-50.96817431 5.44897355 -44.38769752 -0.83131159 -35.51171875 -4.84765625 C-23.27557314 -9.39130272 -10.60752039 -7.17156275 0 0 Z M-47.25 6.3125 C-51.01069374 11.62934288 -52.09885538 16.81639844 -51.25 23.3125 C-49.05378977 29.79370735 -45.25761587 34.18516195 -39.6875 38.125 C-33.90183829 40.12368314 -27.62740343 40.64050814 -21.8359375 38.36328125 C-16.53524356 35.21661462 -12.6257835 31.04470955 -10.25 25.3125 C-9.55900012 18.86915046 -9.39458228 12.76326298 -13.25 7.3125 C-17.22530052 2.54213938 -22.09213597 -0.97336305 -28.296875 -2.0390625 C-36.1342642 -2.37321475 -41.8127982 1.12244373 -47.25 6.3125 Z " fill="#5A97CD" transform="translate(73.25,23.6875)"/>
<path d="M0 0 C3.94025404 3.41488684 6.68768224 6.31487848 7.30078125 11.5859375 C7.3240065 17.1135481 7.32373299 21.34677381 4 26 C-0.34037921 30.35223817 -4.04986426 32.1499245 -10.1875 32.375 C-15.96837357 32.3214025 -19.7079026 30.85972395 -24 27 C-27.81280782 21.95725417 -28.52101675 17.25220105 -28 11 C-25.81762931 4.65452 -22.60160304 0.89558055 -16.625 -2.25 C-10.38575443 -4.03264159 -5.64826323 -3.03332655 0 0 Z " fill="#A7CBE6" transform="translate(53,28)"/>
</svg>
