<?xml version="1.0" encoding="UTF-8"?>
<svg version="1.1" xmlns="http://www.w3.org/2000/svg" width="128" height="128">
<path d="M0 0 C0.5625 1.9375 0.5625 1.9375 1 4 C-0.84716947 5.84716947 -3.46493268 5.17069535 -5.92993164 5.23901367 C-19.82537922 5.6566402 -30.03781833 9.14882042 -40.6875 18.3125 C-50.79796284 30.06249735 -54.28693774 41.6078957 -53.22753906 56.92919922 C-52.31819686 65.20499381 -48.20087661 72.61035159 -43 79 C-42.34 79.33 -41.68 79.66 -41 80 C-40.61070313 79.49210937 -40.22140625 78.98421875 -39.8203125 78.4609375 C-35.30511718 72.9053746 -30.46274174 69.11912947 -24 66 C-23.34 66 -22.68 66 -22 66 C-22.39832031 65.56429687 -22.79664063 65.12859375 -23.20703125 64.6796875 C-23.73683594 64.08414063 -24.26664063 63.48859375 -24.8125 62.875 C-25.59560547 62.00488281 -25.59560547 62.00488281 -26.39453125 61.1171875 C-31.69221215 54.13095137 -32.00101306 47.50384429 -31 39 C-28.8370161 32.27071677 -24.9715551 28.53869932 -19 25 C-12.85910412 22.95303471 -5.42645448 22.9130877 0.74609375 24.87109375 C6.86883591 28.02022757 10.79805722 32.39417165 13 39 C13.81818149 49.67659782 12.91893186 55.21058406 6.25 63.4375 C5.5075 64.283125 4.765 65.12875 4 66 C4.825 66.20625 5.65 66.4125 6.5 66.625 C13.51093701 69.37929668 18.48759081 74.07746294 23 80 C29.63101254 74.53916614 34.3688823 65.4747723 35.20532227 56.89355469 C35.24197998 56.16040039 35.2786377 55.42724609 35.31640625 54.671875 C35.35830078 53.87265625 35.40019531 53.0734375 35.44335938 52.25 C35.48267578 51.425 35.52199219 50.6 35.5625 49.75 C35.62727539 48.48929688 35.62727539 48.48929688 35.69335938 47.203125 C35.79908543 45.13559329 35.90001295 43.06781719 36 41 C37.9375 40.4375 37.9375 40.4375 40 40 C42.39788464 42.39788464 41.31187646 49.06868188 41.31469727 52.43359375 C41.10413832 65.78975864 35.80750662 76.8993708 26.8125 86.75 C14.87619411 97.88341536 1.59143924 100.80272194 -14.14453125 100.34375 C-26.81388903 99.66010765 -38.73553988 93.33281061 -47.375 84.0703125 C-58.07412477 70.43921603 -60.50609327 56.89026769 -59 40 C-56.90262998 28.57682399 -50.17661634 17.20277811 -41 10 C-27.24554354 0.64852818 -16.17306404 -0.44832929 0 0 Z M-23.3125 35.5625 C-26.66435355 40.40406623 -26.47985895 45.31278277 -26 51 C-24.20646165 56.28097404 -21.39000798 58.79895251 -17 62 C-11.60080143 63.79973286 -6.06442735 63.70112627 -0.6875 61.875 C3.43843192 58.99644284 6.37787651 55.86637047 8 51 C8.53422104 45.03110719 8.53306722 40.06406302 5 35 C0.60686812 30.58286193 -3.09882932 28.85079148 -9.3125 28.6875 C-15.81818335 28.75616157 -18.97359013 30.75451879 -23.3125 35.5625 Z M-34 79 C-36.47561503 81.55220464 -36.47561503 81.55220464 -36.9921875 84.890625 C-35.42320288 88.22626158 -32.38540228 89.21228679 -29.1875 90.6875 C-28.55779297 90.99494141 -27.92808594 91.30238281 -27.27929688 91.61914062 C-17.36769358 96.37213402 -4.31933661 96.95553162 6.125 93.3125 C10.69835771 91.34037202 14.92150395 88.85144136 19 86 C17.7169671 80.15233083 14.44884795 77.15021297 9.625 73.8125 C-5.03721755 64.49936507 -21.58941539 67.45527013 -34 79 Z " fill="#000000" transform="translate(73,14)"/>
<path d="M0 0 C1.32 0 2.64 0 4 0 C4 3.96 4 7.92 4 12 C7.96 12 11.92 12 16 12 C16 13.32 16 14.64 16 16 C12.04 16 8.08 16 4 16 C4 19.96 4 23.92 4 28 C2.68 28 1.36 28 0 28 C0 24.04 0 20.08 0 16 C-3.96 16 -7.92 16 -12 16 C-12 14.68 -12 13.36 -12 12 C-8.04 12 -4.08 12 0 12 C0 8.04 0 4.08 0 0 Z " fill="#000000" transform="translate(98,14)"/>
</svg>
